<?xml version="1.0" encoding="utf-8"?>
<!-- Generator: Adobe Illustrator 16.0.4, SVG Export Plug-In . SVG Version: 6.00 Build 0)  -->
<!DOCTYPE svg PUBLIC "-//W3C//DTD SVG 1.1//EN" "http://www.w3.org/Graphics/SVG/1.1/DTD/svg11.dtd">
<svg version="1.1" id="Layer_1" xmlns="http://www.w3.org/2000/svg" xmlns:xlink="http://www.w3.org/1999/xlink" x="0px" y="0px"
	 width="234.629px" height="50px" viewBox="65.777 0 234.629 50" enable-background="new 65.777 0 234.629 50" xml:space="preserve"
	>
<g>
	<g>
		<path fill="#69BE28" d="M294.004,40.182c0.275,0,0.545,0.069,0.807,0.212c0.262,0.142,0.467,0.343,0.612,0.605
			c0.146,0.264,0.22,0.538,0.22,0.823c0,0.282-0.072,0.554-0.216,0.813c-0.145,0.261-0.347,0.464-0.607,0.607
			c-0.26,0.145-0.531,0.216-0.815,0.216c-0.283,0-0.555-0.071-0.815-0.216s-0.463-0.347-0.607-0.607
			c-0.145-0.26-0.217-0.531-0.217-0.813c0-0.285,0.073-0.56,0.22-0.823c0.147-0.263,0.352-0.465,0.614-0.605
			C293.46,40.252,293.729,40.182,294.004,40.182z M294.004,40.454c-0.229,0-0.455,0.06-0.673,0.178s-0.389,0.286-0.512,0.506
			c-0.124,0.219-0.186,0.447-0.186,0.686c0,0.236,0.061,0.463,0.182,0.679c0.12,0.216,0.29,0.385,0.507,0.507
			c0.219,0.12,0.445,0.182,0.681,0.182c0.236,0,0.463-0.062,0.68-0.182c0.219-0.122,0.387-0.291,0.507-0.507
			s0.182-0.442,0.182-0.679c0-0.238-0.062-0.468-0.185-0.686c-0.122-0.22-0.293-0.388-0.512-0.506
			C294.457,40.513,294.233,40.454,294.004,40.454z M293.284,42.729v-1.765h0.606c0.207,0,0.357,0.017,0.449,0.049
			c0.094,0.032,0.167,0.09,0.222,0.17c0.056,0.082,0.082,0.168,0.082,0.26c0,0.129-0.045,0.241-0.137,0.336
			c-0.092,0.096-0.215,0.148-0.365,0.16c0.061,0.026,0.111,0.058,0.147,0.094c0.071,0.07,0.16,0.187,0.262,0.351l0.216,0.346h-0.348
			l-0.157-0.279c-0.122-0.218-0.223-0.354-0.297-0.411c-0.053-0.039-0.129-0.06-0.229-0.06h-0.166v0.749L293.284,42.729
			L293.284,42.729z M293.571,41.737h0.345c0.165,0,0.278-0.025,0.338-0.075c0.061-0.049,0.091-0.114,0.091-0.195
			c0-0.053-0.015-0.099-0.044-0.141c-0.029-0.041-0.069-0.072-0.12-0.093c-0.053-0.021-0.148-0.03-0.286-0.03h-0.323V41.737z"/>
		<path fill="#69BE28" d="M220.336,32.924c0.715-3.548,3.662-5.184,6.191-5.184c2.503,0,5.447,1.636,6.211,5.184H220.336z
			 M234.244,29.669c-1.213-2.118-3.896-4.402-7.749-4.437h-0.007c-4.973,0.095-9.011,4.197-9.011,9.146
			c0,5.006,4.055,9.088,9.05,9.088c2.662,0,5.184-1.209,6.918-3.317c0.287-0.286,0.492-0.585,0.492-1.001
			c0-0.714-0.589-1.292-1.299-1.292c-0.474,0-0.822,0.263-1.137,0.681c-1.102,1.479-2.939,2.378-5.012,2.42
			c-2.928,0-5.571-2.402-6.164-5.526h15.24l0.017-0.273c0.011-0.208,0.014-0.414,0.014-0.621
			C235.596,32.741,235.143,31.112,234.244,29.669"/>
		<path fill="#69BE28" d="M300.019,27.482c-1.484-1.481-3.389-2.264-5.506-2.264c-4.285,0-7.771,3.486-7.771,7.771v9.184
			c0,0.726,0.569,1.295,1.294,1.295c0.729,0,1.301-0.569,1.301-1.295v-9.185c0-2.854,2.322-5.177,5.177-5.177
			c1.377,0,2.636,0.53,3.642,1.533c0.236,0.236,0.554,0.367,0.89,0.367c0.359,0,0.714-0.149,0.976-0.411
			C300.535,28.784,300.535,28.002,300.019,27.482z"/>
		<path fill="#69BE28" d="M269.247,32.924c0.707-3.548,3.657-5.184,6.185-5.184c2.505,0,5.453,1.636,6.22,5.184H269.247z
			 M283.148,29.669c-1.213-2.118-3.894-4.402-7.739-4.437h-0.007c-4.973,0.095-9.016,4.197-9.016,9.146
			c0,5.006,4.062,9.088,9.046,9.088c2.662,0,5.186-1.209,6.928-3.32c0.234-0.259,0.48-0.582,0.48-0.999
			c0-0.714-0.581-1.292-1.293-1.292c-0.466,0-0.833,0.263-1.132,0.679c-1.111,1.481-2.944,2.38-5.014,2.421
			c-2.932,0-5.573-2.402-6.163-5.526h15.231l0.017-0.271c0.011-0.206,0.014-0.415,0.014-0.622
			C284.5,32.744,284.048,31.112,283.148,29.669"/>
		<path fill="#69BE28" d="M258.971,20.003c0,0,0,5.146,0,5.66h-3.202c-0.758-0.002-1.32,0.553-1.32,1.248
			c0,0.698,0.562,1.258,1.25,1.258h3.272v13.968c0,0.774,0.604,1.383,1.358,1.383c0.744,0,1.359-0.608,1.359-1.354
			c0,0,0.002-13.442,0.002-13.996h3.746c0.693,0,1.259-0.564,1.259-1.258c0-0.694-0.572-1.25-1.26-1.25c0,0-3.254,0.002-3.745,0.002
			v-5.65c-0.002-0.755-0.617-1.367-1.361-1.367C259.575,18.646,258.971,19.257,258.971,20.003"/>
		<path fill="#69BE28" d="M238.256,32.661c0-4.415,3.435-7.408,7.663-7.408c4.228,0,7.665,3.164,7.665,7.389v9.513
			c0,0.746-0.601,1.352-1.353,1.352c-0.746,0-1.353-0.614-1.353-1.361l-0.001-9.188c0-2.746-2.223-4.966-4.965-4.966
			c-2.743,0-4.97,2.221-4.97,4.966l0.012,9.197c0,0.746-0.603,1.352-1.349,1.352c-0.752,0-1.351-0.605-1.351-1.352V32.661z"/>
		<path fill="#69BE28" d="M214.029,36.741c-0.503,0-0.968,0.284-1.198,0.741c-0.428,0.812-2.121,3.477-5.775,3.477
			c-3.738,0-6.667-2.918-6.667-6.643c0-4.116,3.39-6.576,6.667-6.576c2.425,0,4.469,1.278,5.785,3.413h0.008
			c0.24,0.333,0.625,0.574,1.057,0.574c0.73,0,1.324-0.594,1.324-1.322c0-0.271-0.08-0.515-0.211-0.723l0,0
			c-1.93-3.28-5.409-4.449-8.021-4.449c-5.146,0-9.331,4.103-9.331,9.146c0,5.094,4.097,9.087,9.331,9.087
			c5.192,0,7.223-2.782,8.3-4.873c0.104-0.2,0.112-0.5,0.112-0.5C215.41,37.353,214.778,36.741,214.029,36.741z"/>
		<path fill="#00B0CA" d="M183.939,48.585c0,0.72,0.584,1.307,1.304,1.307c0.492,0,0.937-0.282,1.164-0.731l9.4-21.777
			c0.145-0.36,0.12-0.562,0.12-0.562c0-0.737-0.603-1.345-1.353-1.345c-0.595,0-1.008,0.334-1.286,0.958
			c0.009-0.03-4.315,10.104-5.442,12.748c-0.469-1.155-5.068-12.687-5.068-12.687c-0.226-0.677-0.708-1.021-1.344-1.021
			c-0.747,0-1.488,0.631-1.31,1.491c0,0,0.024,0.143,0.161,0.492c-0.01-0.023,5.702,14.174,6.164,15.326
			c-0.095,0.213-2.349,5.188-2.349,5.188S183.939,48.338,183.939,48.585"/>
		<path fill="#00B0CA" d="M170.232,40.951c-3.306,0-6.322-3.105-6.322-6.516c0.064-4.271,3.516-5.913,3.668-5.979
			c0.952-0.448,1.792-0.657,2.654-0.657c3.284,0,6.611,2.292,6.611,6.67C176.843,38.218,174.063,40.951,170.232,40.951
			 M170.232,25.293c-0.92,0-2.331,0.156-3.808,0.898c-0.05,0.024-1.267,0.631-2.52,1.861v-7.98
			c-0.022-0.741-0.629-1.342-1.368-1.342c-0.751,0-1.357,0.61-1.357,1.361V33.94c0,4.112,2.12,6.162,2.209,6.249
			c2.106,2.447,4.919,3.333,6.844,3.333c5.229,0,9.326-4.016,9.326-9.149C179.558,29.909,176.072,25.293,170.232,25.293"/>
		<path fill="#00B0CA" d="M152.333,40.38L152.333,40.38c-0.949,0.45-1.788,0.659-2.652,0.659c-3.281,0-6.607-2.293-6.607-6.667
			c0-3.758,2.78-6.484,6.607-6.484c3.308,0,6.32,3.105,6.32,6.507c0.003,0.086,0.003,0.124,0.003,0.124
			C155.932,38.674,152.486,40.316,152.333,40.38 M158.729,34.893c0-4.107-2.109-6.161-2.197-6.241
			c-2.112-2.454-4.926-3.336-6.852-3.336c-5.228,0-9.325,4.026-9.325,9.151c0,4.46,3.492,9.079,9.325,9.079
			c0.756,0,2.257-0.119,3.811-0.899c0.046-0.02,1.271-0.622,2.521-1.86v1.445c0.019,0.74,0.629,1.339,1.366,1.339
			c0.746,0,1.351-0.612,1.351-1.364V34.893z"/>
		<path fill="#00B0CA" d="M129.265,40.951c-3.303,0-6.319-3.105-6.319-6.516c0.055-4.268,3.521-5.91,3.662-5.979
			c0.95-0.448,1.798-0.657,2.658-0.657c3.284,0,6.605,2.292,6.605,6.67C135.87,38.218,133.093,40.951,129.265,40.951
			 M129.265,25.293c-0.924,0-2.338,0.156-3.812,0.898c-0.046,0.024-1.265,0.631-2.516,1.861c0-1.15-0.008-1.15,0-7.98
			c-0.022-0.741-0.632-1.342-1.365-1.342c-0.752,0-1.359,0.61-1.359,1.361l0.001,13.849c0,4.112,2.116,6.162,2.203,6.249
			c2.106,2.447,4.93,3.333,6.848,3.333c5.233,0,9.328-4.016,9.328-9.149C138.593,29.909,135.102,25.293,129.265,25.293"/>
	</g>
	<g>
		<g>
			<path fill="#00B0CA" d="M91.51,43.134h0.32l0.476,1.4l0.472-1.4h0.319v1.658h-0.212v-0.979c0-0.036,0-0.092,0.002-0.171
				c0.001-0.077,0.001-0.16,0.001-0.25l-0.472,1.4h-0.223l-0.479-1.4v0.05c0,0.04,0.001,0.104,0.003,0.187
				c0.002,0.084,0.004,0.145,0.004,0.183v0.98H91.51V43.134z"/>
			<path fill="#00B0CA" d="M91.31,43.134v0.195h-0.558v1.463h-0.229V43.33h-0.56v-0.195H91.31z"/>
		</g>
		<g>
			<path fill="#F7A11A" d="M83.334,29.134c-1.162-1.506-2.922-2.546-4.961-2.734c-3.593-0.328-6.813,2.1-7.562,5.541
				c1.152,0.667,2.466,1.104,3.881,1.233C78.208,33.495,81.454,31.845,83.334,29.134z"/>
			<path fill="#00B0CA" d="M95.261,6.132c0.046,0.003,0.093,0.009,0.139,0.011c-1.842-3.404-5.336-5.823-9.485-6.114
				c-6.45-0.45-12.044,4.413-12.495,10.862c-0.074,1.063-0.003,2.102,0.195,3.099c0.84-0.177,1.72-0.242,2.618-0.177
				c2.563,0.18,4.817,1.36,6.407,3.133C83.181,10.519,88.805,5.682,95.261,6.132z"/>
			<path fill="#BED600" d="M95.199,8.439c-5.28-0.304-9.822,3.741-10.129,9.023c-0.124,2.161,0.489,4.286,1.709,6.037
				c5.459-0.718,9.814-5.23,10.143-10.933c0.081-1.377-0.082-2.714-0.45-3.968C96.054,8.518,95.628,8.463,95.199,8.439z"/>
			<path fill="#A68462" d="M94.755,32.152c-0.082,0-2.035,0.009-4.007,0.799c-0.677,0.272-1.288,0.609-1.819,1.002v-4.927
				c0-0.691-0.562-1.252-1.254-1.252s-1.253,0.562-1.253,1.252v6.551c-0.531-0.394-1.142-0.732-1.819-1.002
				c-1.971-0.791-3.924-0.801-4.007-0.801c-0.691,0-1.253,0.563-1.253,1.254c0,0.692,0.562,1.254,1.253,1.254
				c0.015,0,1.556,0.011,3.073,0.62c1.853,0.743,2.753,1.99,2.753,3.808v8.037c0,0.69,0.562,1.252,1.253,1.252
				s1.254-0.562,1.254-1.252v-9.66c0-1.802,0.885-3.042,2.704-3.788c1.523-0.627,3.109-0.64,3.124-0.641
				c0.689-0.001,1.25-0.563,1.25-1.252C96.007,32.714,95.446,32.152,94.755,32.152z"/>
			<path fill="#69BE28" d="M77.461,24.246c-2.639-2.259-4.398-5.726-4.62-9.658c-4.035,1.1-7.02,4.768-7.063,9.154
				c-0.028,2.846,1.189,5.415,3.145,7.19C70.067,27.284,73.419,24.574,77.461,24.246z"/>
			<path fill="#00B0CA" d="M91.126,28.548c1.282,0.345,2.656,0.534,4.087,0.534c4.113,0,7.76-1.554,10.031-3.946
				c1.336,1.797,2.012,4.016,1.882,6.278c-0.305,5.28-4.85,9.327-10.128,9.023c-1.649-0.096-3.248-0.615-4.629-1.503
				c-0.521-0.334-1.217-0.185-1.552,0.337c-0.335,0.523-0.185,1.217,0.337,1.553c1.704,1.098,3.681,1.738,5.714,1.854
				c6.518,0.379,12.125-4.619,12.502-11.135c0.18-3.125-0.888-6.185-2.945-8.52c1.013-2.335,1.244-4.925,0.641-7.448
				c-0.164-0.681-0.394-1.398-0.67-2.031l-0.004-0.018c-1.385-3.097-4.037-5.451-7.278-6.464c-0.592-0.187-1.222,0.145-1.408,0.737
				c-0.185,0.593,0.145,1.222,0.737,1.407c2.625,0.822,4.825,2.791,5.93,5.307l0.01,0.03c0.213,0.498,0.371,1.023,0.497,1.557
				c0.459,1.918,0.322,3.884-0.377,5.685c-1.133-0.419-2.367-0.655-3.661-0.654c-4.806,0-8.812,3.184-9.725,7.411L91.126,28.548z"/>
			<path fill="#00B0CA" d="M69.344,37.475c0.019,0.08,0.047,0.159,0.082,0.235c0.69,1.406,1.746,2.63,3.03,3.535
				c0.051,0.05,0.104,0.094,0.164,0.133c1.639,1.098,3.632,1.65,5.611,1.562c2.048-0.094,3.964-0.837,5.542-2.152
				c0.477-0.396,0.542-1.105,0.145-1.583c-0.398-0.477-1.107-0.541-1.583-0.145c-0.958,0.799-2.094,1.309-3.274,1.52
				c-0.022,0.003-0.044,0.004-0.068,0.008c-1.987,0.338-3.986-0.207-5.519-1.392c-0.633-0.523-1.186-1.127-1.649-1.801
				c-0.135-0.216-0.263-0.413-0.376-0.646l-0.321-0.662l-0.274-0.765c-0.096-0.3-0.174-0.636-0.238-0.95
				c-0.112-0.572-0.687-0.941-1.275-0.827c-0.591,0.11-0.98,0.664-0.867,1.234l0.269,1.232c0.274,1.162,1.372,3.111,2.486,4.219"/>
		</g>
	</g>
</g>
</svg>
